<svg width="41.611389" height="41.611328" viewBox="0 0 41.6114 41.6113" fill="none" xmlns="http://www.w3.org/2000/svg" xmlns:xlink="http://www.w3.org/1999/xlink">
	<desc>
			Created with Pixso.
	</desc>
	<defs/>
	<path id="Soft Star" d="M19.08 0.52C19.12 -0.14 20.08 -0.2 20.19 0.46L21.16 5.94C22.42 13.01 28.35 18.31 35.53 18.75L41.08 19.08C41.74 19.12 41.8 20.08 41.14 20.19L35.66 21.16C28.59 22.42 23.29 28.35 22.86 35.53L22.52 41.08C22.48 41.74 21.52 41.8 21.41 41.14L20.44 35.66C19.18 28.59 13.25 23.29 6.08 22.86L0.52 22.52C-0.14 22.48 -0.2 21.52 0.46 21.41L5.94 20.44C13.01 19.18 18.31 13.25 18.75 6.07L19.08 0.52Z" fill="#FFFFFF" fill-opacity="1.000000" fill-rule="nonzero"/>
</svg>
